@startuml
'https://plantuml.com/class-diagram




class Character{
- character : char
- characterProperty : CharacterProperties

+ Character( in character : char, in characterProperty : CharacterProperties) : Character
+ setCharacter(in character : char) : void
+ setCharacterProperty( in characterProperty : CharacterProperties) : void
+ getCharacter() : char
+ getFont() : String
+ getColor() : String
+ getSize() : int
}

class CharacterProperties{
- font : String
- color : String
- size : int

+ CharacterProperties(in font : String, in color : String, in size : int ) : CharacterProperties
+ getFont() : String
+ getColor(): String
+ getSize() : int
}

class CharacterPropertiesFactory{
- flyweights : Map<String, CharacterProperties>
+CharacterPropertiesFactory() : CharacterPropertiesFactory
+ setAndRetrieveFlyweightCharacterProperties(in font : String, in color : String, in size : int) : CharacterProperties
+ sizeOfMap() : int
}

class Document{
- characters : List<Character>
- propertiesFactory : CharacterPropertiesFactory

+ Document() : Document
+ addCharacter( in c : char, in font : String, in color : String, in size : int) : void
+ editCharacterProperties(in index : int, in font : String, in color: String, in size : int) : void
+ saveToFile( in filename : String) : void
+ loadFromFile( in filename : String) : void
}

Character o-- CharacterProperties
CharacterProperties --o CharacterPropertiesFactory
CharacterPropertiesFactory --* Document
Character --* Document
@enduml